<svg xmlns="http://www.w3.org/2000/svg" width="150" height="48" viewBox="-3 53 150 48" enable-background="new -3 53 150 48"><path fill="#fff" d="M29.1 53h5.7v48h-5.7zm42.6 31.9c0-8.9-7.2-16.1-16.1-16.1S39.5 76 39.5 84.9 46.7 101 55.6 101s16.1-7.2 16.1-16.1M55.6 95.1c-5.6 0-10.1-4.5-10.1-10.2 0-5.6 4.5-10.2 10.1-10.2s10.1 4.5 10.1 10.2c.1 5.6-4.5 10.2-10.1 10.2M13.3 74.7c2.8 0 5.4 1.1 7.3 3l4.2-4.2c-2.9-2.9-7-4.7-11.5-4.7C4.3 68.8-3 76-3 84.9S4.3 101 13.3 101c4.5 0 8.6-1.8 11.5-4.7l-4.2-4.2c-1.9 1.8-4.5 3-7.3 3C7.6 95.1 3 90.5 3 84.9s4.7-10.2 10.3-10.2M147 97.8c0-1.8-1.4-3.2-3.2-3.2s-3.2 1.4-3.2 3.2c0 1.6 1.2 2.9 2.7 3.2h.9c1.6-.2 2.8-1.5 2.8-3.2m-42-1.5l-4.2-4.2c-1.9 1.8-4.5 3-7.3 3-5.7 0-10.3-4.5-10.3-10.2 0-5.6 4.7-10.2 10.3-10.2 2.8 0 5.4 1.1 7.3 3l4.2-4.2c-3-2.9-7.1-4.7-11.5-4.7C84.4 68.8 77 76 77 84.9c0 8.5 6.7 15.5 15.3 16.1h2.1c4.1-.3 7.8-2 10.6-4.7"/><path fill="#fff" d="M114.9 85.8l15.2 15.1h7.8l-16.2-16.1 16.5-16H130l-15.1 15V53h-5.7v47.9h5.7z"/></svg>