<svg xmlns="http://www.w3.org/2000/svg" width="169.6" height="170.5" viewBox="-34.5 -34.1 169.6 170.5"><path opacity=".25" d="M89.2 3.2c-2.2 0-4.2.8-5.8 2.4-3.2 3.2-3.2 8.4 0 11.5 1.5 1.5 3.6 2.4 5.8 2.4 2.2 0 4.2-.8 5.8-2.4 3.2-3.2 3.2-8.4 0-11.5-1.6-1.6-3.6-2.4-5.8-2.4zm4.4 12.5c-2.3 2.3-6.4 2.3-8.7 0-2.4-2.4-2.4-6.3 0-8.7 1.2-1.2 2.7-1.8 4.4-1.8s3.2.6 4.4 1.8c2.3 2.4 2.3 6.3-.1 8.7zm8.7 3.5h3.9c.3 0 .7-.2.8-.5l27.9-43c.3-.4.2-.9-.1-1.2l-2.5-2.5c-.4-.4-1-.4-1.4 0l-7.1 6.8c-.1.1-.2.3-.3.5l-.6 3.2-1.3.2c-.3 0-.5.2-.7.4s-.2.5-.1.8l.1.6-.6-.1c-.5-.1-1 .2-1.1.7l-.4 1.2-.7-.7c-.4-.4-1-.4-1.4 0L104.7-3c-.1.1-.2.1-.3.2L100.5 1c-.1-.2-.3-.3-.4-.5l15.4-16.1c.2-.2.3-.7.2-1.1 0-.2-.1-.3-.3-.5l-.7-.7 1.2-.4c.5-.1.8-.6.7-1.1l-.1-.6.6.1c.3.1.6 0 .8-.2.2-.2.4-.4.4-.7l.2-1.3 3.3-.6c.2 0 .4-.1.5-.3l6.7-7c.4-.4.4-1 0-1.4l-2.5-2.5c-.3-.3-.9-.4-1.2-.1l-43 27.9c-.3.2-.5.5-.5.8V-2c-.7.4-1.4.9-2.1 1.4-.3.2-.5.4-.8.7l-.2.2c-.1.1-.2.2-.3.2C77 1.9 76 3.4 75.2 5.1l-2.9-.8c-.3-.1-.7 0-1 .3L66.8 9 58.3-3.9c-1.6-2.4-4.3-3.8-7.1-3.8-1.7 0-3.3.5-4.7 1.4-3.9 2.6-5 7.9-2.4 11.9l4.8 7.2c.6 2.5 1.3 10-9.5 14.4C19.1 34.4.5 48.2-14.5 67c-13 16.3-19.1 31-19.4 31.7-1.3 3.2-.6 6.8 1.9 9.3.8.8 1.8 1.4 2.8 1.9 1 .4 2.1.6 3.2.6 3.5 0 6.6-2.1 7.9-5.3.1-.1 5.5-13.3 17.2-27.8C14.4 58.3 32.5 46 53 40.8c.9-.2 1.7-.6 2.4-1l15-9.4c2-1.2 3.3-3.2 3.8-5.4.1-.5.2-1.1.2-1.6l2.6-2.6c.4.5.8 1 1.3 1.4.9.9 1.9 1.7 3 2.4l-2.8 2.8c-.5 0-1.1.1-1.6.2-2.2.5-4.2 1.9-5.4 3.8l-9.4 15c-.5.8-.8 1.6-1 2.4-5.2 20.5-17.5 38.6-36.5 53.9-14.7 11.7-27.8 17.1-27.9 17.2-4.4 1.8-6.5 6.8-4.7 11.2.4 1.1 1.1 2 1.9 2.8 1.6 1.6 3.8 2.5 6.1 2.5 1.1 0 2.2-.2 3.2-.6.6-.2 15.1-6.2 31.7-19.4 18.8-15 32.6-33.6 39.9-53.7 3.3-8.1 8.4-9.8 12-9.8 1 0 1.9.1 2.4.3l7.2 4.8c1.4.9 3 1.4 4.7 1.4 2.9 0 5.5-1.4 7.1-3.8 2.6-3.9 1.5-9.3-2.4-11.9l-13-8.7 5.1-5.1c.2-.2.3-.6.3-.9l-1-4.7c1.1-.6 1.9-1.2 2.9-2.2.8-.8 1.6-1.8 2.2-2.9zm12.9-29.5c.7 2.2.2 4.7-1.5 6.4-1.8 1.8-4.4 2.3-6.7 1.4l8.2-7.8zm-11.9 4.5c-1.1-2.4-.6-5.3 1.3-7.2 1.8-1.8 4.6-2.3 6.9-1.4l-8.2 8.6zM82.5 0l.3.1c.2.1.3.2.3.4.1.2 0 .3 0 .5s-.2.3-.4.3c-.2.1-.3 0-.5 0l-.9-.5c.3-.4.7-.6 1.2-.8zM72.4 24.5c-.4 1.7-1.4 3.2-2.9 4.2l-15 9.4c-.6.4-1.2.6-1.9.8-20.9 5.3-39.4 17.8-55 37.2-11.9 14.8-17.4 28.2-17.5 28.3-1 2.5-3.4 4.1-6.1 4.1-.9 0-1.7-.2-2.5-.5s-1.5-.8-2.2-1.4c-1.9-1.9-2.4-4.7-1.4-7.1.2-.6 6.3-15.1 19.1-31.2C1.8 49.7 20.1 36.2 40 29c12.9-5.3 11.2-15 10.7-17 0-.1-.1-.2-.1-.3l-4.9-7.3c-2-3-1.2-7.1 1.8-9.1 1.1-.7 2.3-1.1 3.6-1.1 2.2 0 4.3 1.1 5.5 2.9l14.8 22.3c1 1.6 1.3 3.4 1 5.1zm1.7-3.6c-.2-.9-.6-1.7-1.1-2.4l-5-7.8 4.4-4.4 2.1.7c-.4 1.4-.6 2.9-.6 4.3 0 2.8.7 5.4 2.1 7.7l-1.9 1.9zm30.5 24.4c3 2 3.8 6.1 1.8 9.1-1.2 1.8-3.3 2.9-5.5 2.9-1.3 0-2.5-.4-3.6-1.1L90 51.3c-.1-.1-.2-.1-.3-.1-.7-.2-1.7-.4-3.1-.4-3.5 0-9.9 1.4-13.9 11.1C65.6 81.7 52 100 33.5 114.8c-16.3 13-31 19-31.2 19.1-2.4 1-5.3.4-7.1-1.4-.6-.6-1.1-1.3-1.4-2.2-1.4-3.3.2-7.2 3.6-8.6.1-.1 13.6-5.7 28.3-17.5 19.4-15.6 31.9-34.1 37.2-55 .2-.7.4-1.3.8-1.9l9.4-15c.9-1.5 2.5-2.6 4.2-2.9.5-.1.9-.1 1.4-.1 1.3 0 2.6.4 3.6 1.1l22.3 14.9zm-7.2-23.5l-.4-.7c-.2-.3-.1-.7.2-.9.1-.1.3-.1.5-.1s.3.1.4.3l.3.5c-.3.4-.7.7-1 .9zm.8-3.6c-.7-.2-1.4-.1-2 .3-1.3.8-1.7 2.4-.9 3.6l.4.7h-.1c-.4.2-.6.6-.5 1l.1.8 1 4.3-5 5-7.7-5.1c-.7-.5-1.6-.8-2.4-1.1l2.7-2.7c.1-.1.1-.1.1-.2l.1-.1c0-.1 0-.1.1-.2v-.6c0-.1-.1-.1-.1-.2s-.1-.1-.1-.2l-.1-.1-.1-.1c-1.3-.6-2.6-1.6-3.6-2.7-2.5-2.5-3.9-5.9-3.9-9.4 0-1.3.2-2.6.6-3.9.6-2 1.7-3.8 3.1-5.3l1.3 1c.4.2.8.3 1.2.3 1 0 1.9-.5 2.4-1.4.6-1.2.2-2.7-1.1-3.5v-3.1l41.9-27.1 1.3 1.3-5.8 6.1-3.7.7c-.4.1-.7.4-.8.8l-.1.9-1-.2c-.3-.1-.7 0-.9.3-.2.2-.4.6-.3.9l.2 1.2-2 .6c-.3.1-.6.4-.7.7-.1.3 0 .7.3 1l1.3 1.3-.5.5c-3.2-1.7-7.2-1.1-9.8 1.5-2.7 2.7-3.2 6.8-1.3 10.1l-4 4.2c-.2.2-.3.5-.3.7 0 .3.1.5.3.7.1.1.2.1.2.2l.1.1.2.2.2.2c.3.3.7.7 1 1.1l1.3 2c.3.5.9.6 1.4.3.5-.3.6-.9.3-1.4l-.9-1.3 3.7-3.5c1.2.6 2.5.9 3.8.9 2.2 0 4.3-.8 5.9-2.4 2.5-2.5 3.1-6.2 1.7-9.3l.6-.6 1.2 1.2c.2.2.6.3 1 .3.3-.1.6-.3.7-.7l.6-2 1.2.2c.3.1.7 0 .9-.3s.3-.6.3-.9l-.2-1 .9-.1c.4-.1.8-.4.8-.8l.7-3.6 6.2-5.9 1.3 1.3-27.1 41.9h-2.3c1.3-3.2 1.6-6.7.6-10-.1-.5-.7-.8-1.2-.7-.5.1-.8.7-.7 1.2.9 3.2.6 6.5-.9 9.4-.4.8-.9 1.5-1.4 2.2-.5-.9-1-1.3-1.7-1.5z"/></svg>